<svg width="178" height="52" viewBox="0 0 178 52" fill="none" xmlns="http://www.w3.org/2000/svg">
<path d="M26 51C39.8071 51 51 39.8071 51 26C51 12.1929 39.8071 1 26 1C12.1929 1 1 12.1929 1 26C1 39.8071 12.1929 51 26 51Z" stroke="#008281" stroke-width="0.7" stroke-miterlimit="10"/>
<path d="M50.1743 19.6213H1.7749" stroke="#008281" stroke-width="0.7" stroke-miterlimit="10"/>
<path d="M50.9993 26.2263H1.00635" stroke="#008281" stroke-width="0.7" stroke-miterlimit="10"/>
<path d="M15.4244 21.2721C15.4431 13.8648 11.0525 10.8926 7.28809 9.70557" stroke="#008281" stroke-width="0.7" stroke-miterlimit="10"/>
<path d="M44.7189 9.72241C41.0596 10.9445 36.7952 13.9424 36.5405 21.2726" stroke="#008281" stroke-width="0.7" stroke-miterlimit="10"/>
<path d="M15.418 48.6557V42.6598V32.5584V18.5828" stroke="#008281" stroke-width="0.7" stroke-miterlimit="10"/>
<path d="M36.5625 18.5828V32.5584V48.6557" stroke="#008281" stroke-width="0.7" stroke-miterlimit="10"/>
<path d="M15.4191 18.5825C15.3983 17.1821 15.6561 15.7916 16.1776 14.4918C16.6991 13.192 17.4739 12.0089 18.4568 11.0112C19.4397 10.0136 20.6112 9.22133 21.9031 8.68057C23.195 8.13981 24.5815 7.86133 25.982 7.86133C27.3826 7.86133 28.7691 8.13981 30.061 8.68057C31.3529 9.22133 32.5244 10.0136 33.5073 11.0112C34.4902 12.0089 35.265 13.192 35.7865 14.4918C36.3079 15.7916 36.5658 17.1821 36.5449 18.5825" stroke="#008281" stroke-width="0.7" stroke-miterlimit="10"/>
<path d="M30.6959 19.7312C30.6959 19.1126 30.574 18.5 30.3373 17.9285C30.1005 17.357 29.7535 16.8377 29.3161 16.4002C28.8787 15.9628 28.3594 15.6158 27.7878 15.3791C27.2163 15.1424 26.6038 15.0205 25.9851 15.0205C25.3665 15.0205 24.754 15.1424 24.1824 15.3791C23.6109 15.6158 23.0916 15.9628 22.6542 16.4002C22.2167 16.8377 21.8697 17.357 21.633 17.9285C21.3963 18.5 21.2744 19.1126 21.2744 19.7312" stroke="#008281" stroke-width="0.7" stroke-miterlimit="10"/>
<path d="M8.36205 19.7312C8.36144 19.1118 8.23879 18.4986 8.0011 17.9265C7.76342 17.3545 7.41536 16.8349 6.97682 16.3975C6.53827 15.96 6.01783 15.6133 5.44522 15.377C4.87262 15.1407 4.25908 15.0196 3.63965 15.0205" stroke="#008281" stroke-width="0.7" stroke-miterlimit="10"/>
<path d="M43.8481 19.7312C43.8494 18.4822 44.3461 17.2848 45.2292 16.4016C46.1124 15.5184 47.3099 15.0217 48.5589 15.0205" stroke="#008281" stroke-width="0.7" stroke-miterlimit="10"/>
<path d="M25.9844 15.0199V8.01929" stroke="#008281" stroke-width="0.7" stroke-miterlimit="10"/>
<path d="M23.1589 15.9687L19.21 10.4822" stroke="#008281" stroke-width="0.7" stroke-miterlimit="10"/>
<path d="M28.9756 15.9687L32.9246 10.4822" stroke="#008281" stroke-width="0.7" stroke-miterlimit="10"/>
<path d="M4.46191 13.3005C4.46191 13.3005 9.78251 13.9758 10.3036 19.6212" stroke="#008281" stroke-width="0.7" stroke-miterlimit="10"/>
<path d="M47.6346 13.3005C47.6346 13.3005 42.314 13.9758 41.793 19.6212" stroke="#008281" stroke-width="0.7" stroke-miterlimit="10"/>
<path d="M31.002 50.5618V35.1328" stroke="#008281" stroke-width="0.7" stroke-miterlimit="10"/>
<path d="M21.0459 50.5618V35.1328" stroke="#008281" stroke-width="0.7" stroke-miterlimit="10"/>
<path d="M8.34863 26.2393V43.7035" stroke="#008281" stroke-width="0.7" stroke-miterlimit="10"/>
<path d="M10.2925 26.2393V45.449" stroke="#008281" stroke-width="0.7" stroke-miterlimit="10"/>
<path d="M43.7461 26.2393V43.7035" stroke="#008281" stroke-width="0.7" stroke-miterlimit="10"/>
<path d="M41.8032 26.2393V45.449" stroke="#008281" stroke-width="0.7" stroke-miterlimit="10"/>
<path d="M30.9954 35.1673C30.9954 32.1928 28.7639 29.772 26.0207 29.772C23.2774 29.772 21.0459 32.1951 21.0459 35.1673" stroke="#008281" stroke-width="0.7" stroke-miterlimit="10"/>
<path d="M69.038 32.22C68.246 32.22 67.586 32.1467 67.058 32C66.5447 31.8533 66.134 31.692 65.826 31.516C65.4593 31.3253 65.1807 31.098 64.99 30.834V28.48H65.144C65.2173 28.7147 65.32 29.03 65.452 29.426C65.5987 29.822 65.8113 30.2107 66.09 30.592C66.3833 30.9733 66.7647 31.3033 67.234 31.582C67.718 31.8607 68.3193 32 69.038 32C69.9913 32 70.776 31.8167 71.392 31.45C72.008 31.0687 72.316 30.5407 72.316 29.866C72.316 29.382 72.14 28.986 71.788 28.678C71.436 28.3553 70.9887 28.0767 70.446 27.842C69.918 27.6073 69.346 27.3873 68.73 27.182C68.114 26.962 67.5347 26.7127 66.992 26.434C66.464 26.1553 66.024 25.8253 65.672 25.444C65.32 25.048 65.144 24.542 65.144 23.926C65.144 22.9873 65.4813 22.232 66.156 21.66C66.8453 21.0733 67.806 20.78 69.038 20.78C69.4633 20.78 69.8593 20.824 70.226 20.912C70.5927 20.9853 70.93 21.0807 71.238 21.198C71.5607 21.3153 71.8467 21.44 72.096 21.572C72.3453 21.6893 72.5507 21.7993 72.712 21.902V24.058H72.536C72.5067 23.9553 72.4187 23.7427 72.272 23.42C72.14 23.0827 71.9347 22.738 71.656 22.386C71.3773 22.0193 71.0253 21.6967 70.6 21.418C70.1747 21.1393 69.654 21 69.038 21C67.0873 21 66.112 21.6967 66.112 23.09C66.112 23.6327 66.288 24.0727 66.64 24.41C66.992 24.7473 67.432 25.048 67.96 25.312C68.5027 25.5613 69.082 25.7887 69.698 25.994C70.314 26.1993 70.886 26.4413 71.414 26.72C71.9567 26.984 72.404 27.314 72.756 27.71C73.108 28.0913 73.284 28.59 73.284 29.206C73.284 30.0713 72.9247 30.79 72.206 31.362C71.502 31.934 70.446 32.22 69.038 32.22ZM77.523 18.206H77.743V20.78H80.581V21H77.743V29.404C77.743 30.1813 77.853 30.7533 78.073 31.12C78.293 31.4867 78.645 31.67 79.129 31.67C79.525 31.67 79.8843 31.5893 80.207 31.428C80.5296 31.252 80.8303 31.032 81.109 30.768L81.263 30.966C80.9696 31.23 80.6396 31.472 80.273 31.692C79.921 31.8973 79.4883 32 78.975 32C78.0363 32 77.3763 31.758 76.995 31.274C76.6136 30.79 76.423 30.0933 76.423 29.184V21H74.927V20.78C75.6163 20.7067 76.1883 20.494 76.643 20.142C77.0976 19.79 77.391 19.1447 77.523 18.206ZM82.8005 29.36C82.8005 28.6267 82.9839 28.04 83.3505 27.6C83.7319 27.1453 84.2012 26.786 84.7585 26.522C85.3159 26.258 85.9245 26.06 86.5845 25.928C87.2592 25.796 87.8825 25.6713 88.4545 25.554C89.0412 25.4367 89.5399 25.3047 89.9505 25.158C90.3612 25.0113 90.5959 24.7987 90.6545 24.52C90.6399 23.9627 90.5812 23.4713 90.4785 23.046C90.3759 22.606 90.2145 22.2393 89.9945 21.946C89.7745 21.638 89.4812 21.4033 89.1145 21.242C88.7479 21.0807 88.2859 21 87.7285 21C87.2445 21 86.8412 21.0733 86.5185 21.22C86.1959 21.352 85.9245 21.5207 85.7045 21.726C85.4992 21.9167 85.3305 22.1367 85.1985 22.386C85.0665 22.6207 84.9419 22.8407 84.8245 23.046C84.7219 23.2367 84.6045 23.4053 84.4725 23.552C84.3552 23.684 84.2012 23.75 84.0105 23.75C83.7759 23.75 83.6219 23.596 83.5485 23.288C83.4752 22.98 83.5559 22.6427 83.7905 22.276C84.0252 21.8947 84.4505 21.55 85.0665 21.242C85.6825 20.934 86.5699 20.78 87.7285 20.78C88.5205 20.78 89.1879 20.8973 89.7305 21.132C90.2732 21.3667 90.7132 21.6747 91.0505 22.056C91.3879 22.4227 91.6299 22.8407 91.7765 23.31C91.9232 23.7793 91.9965 24.2487 91.9965 24.718V30.394C91.9965 30.8633 92.0259 31.1933 92.0845 31.384C92.1579 31.56 92.2972 31.648 92.5025 31.648C92.5905 31.648 92.6639 31.6407 92.7225 31.626C92.7812 31.5967 92.8619 31.5453 92.9645 31.472L93.0525 31.604C92.9352 31.7067 92.7959 31.802 92.6345 31.89C92.4732 31.9633 92.3119 32 92.1505 32C91.6812 32 91.3145 31.868 91.0505 31.604C90.8012 31.3253 90.6765 30.9293 90.6765 30.416V29.866C90.5005 30.1007 90.2732 30.3573 89.9945 30.636C89.7305 30.9147 89.4152 31.1713 89.0485 31.406C88.6819 31.6407 88.2639 31.8387 87.7945 32C87.3399 32.1467 86.8339 32.22 86.2765 32.22C85.7779 32.22 85.3159 32.154 84.8905 32.022C84.4652 31.89 84.0985 31.7067 83.7905 31.472C83.4825 31.2227 83.2405 30.922 83.0645 30.57C82.8885 30.2033 82.8005 29.8 82.8005 29.36ZM84.1205 29.338C84.1205 30.13 84.3332 30.7753 84.7585 31.274C85.1839 31.758 85.7779 32 86.5405 32C87.0979 32 87.6259 31.8753 88.1245 31.626C88.6232 31.3767 89.0632 31.0907 89.4445 30.768C89.8259 30.4307 90.1265 30.0933 90.3465 29.756C90.5665 29.404 90.6765 29.14 90.6765 28.964V25.246V25.07C90.3832 25.29 90.0092 25.4587 89.5545 25.576C89.1145 25.6933 88.6525 25.8033 88.1685 25.906C87.6845 26.0087 87.2005 26.126 86.7165 26.258C86.2325 26.3753 85.7999 26.5587 85.4185 26.808C85.0372 27.0427 84.7219 27.3653 84.4725 27.776C84.2379 28.172 84.1205 28.6927 84.1205 29.338ZM97.2406 21V21.22C96.9326 21.2493 96.7053 21.3667 96.5586 21.572C96.412 21.7627 96.4486 22.1147 96.6686 22.628L100.079 30.416C100.46 29.5507 100.856 28.6633 101.267 27.754C101.692 26.83 102.073 25.9793 102.411 25.202C102.821 24.3073 103.217 23.4347 103.599 22.584C103.701 22.32 103.745 22.1 103.731 21.924C103.716 21.748 103.657 21.6087 103.555 21.506C103.467 21.4033 103.349 21.33 103.203 21.286C103.071 21.242 102.939 21.22 102.807 21.22V21H105.293V21.22C105.014 21.2787 104.757 21.4033 104.523 21.594C104.288 21.77 104.053 22.1147 103.819 22.628C103.437 23.4933 103.041 24.3733 102.631 25.268C102.235 26.1627 101.846 27.0353 101.465 27.886C101.083 28.722 100.724 29.5213 100.387 30.284C100.049 31.0467 99.7413 31.7287 99.4626 32.33C99.184 32.946 98.9493 33.4593 98.7586 33.87C98.5826 34.2953 98.458 34.5887 98.3846 34.75C98.0033 35.63 97.6146 36.2533 97.2186 36.62C96.8373 36.9867 96.3753 37.17 95.8326 37.17C95.6126 37.17 95.4 37.1113 95.1946 36.994C94.9893 36.8913 94.8866 36.7153 94.8866 36.466C94.8866 36.2313 94.9673 36.0627 95.1286 35.96C95.29 35.8573 95.4806 35.806 95.7006 35.806C95.8766 35.806 96.0453 35.8207 96.2066 35.85C96.3826 35.894 96.5513 35.916 96.7126 35.916C96.962 35.916 97.2113 35.8207 97.4606 35.63C97.7246 35.4393 98.0033 35.0287 98.2966 34.398C98.3553 34.266 98.48 33.9873 98.6706 33.562C98.8613 33.1367 99.096 32.616 99.3746 32L95.1946 22.628C94.96 22.1147 94.762 21.77 94.6006 21.594C94.4393 21.4033 94.2193 21.2787 93.9406 21.22V21H97.2406ZM107.062 31.78C107.194 31.7507 107.318 31.714 107.436 31.67C107.568 31.6113 107.678 31.538 107.766 31.45C107.854 31.3473 107.92 31.2153 107.964 31.054C108.022 30.8927 108.052 30.68 108.052 30.416V22.694C108.052 22.1807 107.956 21.8433 107.766 21.682C107.575 21.506 107.34 21.3887 107.062 21.33V21.11L109.372 20.89V22.87C109.65 22.3127 110.046 21.8287 110.56 21.418C111.088 20.9927 111.755 20.78 112.562 20.78C113.603 20.78 114.41 21.022 114.982 21.506C115.554 21.99 115.935 22.5693 116.126 23.244C116.243 22.9213 116.397 22.6133 116.588 22.32C116.793 22.0267 117.035 21.77 117.314 21.55C117.592 21.3153 117.908 21.132 118.26 21C118.626 20.8533 119.03 20.78 119.47 20.78C120.13 20.78 120.694 20.8827 121.164 21.088C121.648 21.2933 122.036 21.572 122.33 21.924C122.623 22.2613 122.836 22.65 122.968 23.09C123.114 23.5153 123.188 23.948 123.188 24.388V30.416C123.188 30.68 123.21 30.8927 123.254 31.054C123.312 31.2153 123.386 31.3473 123.474 31.45C123.562 31.538 123.664 31.6113 123.782 31.67C123.914 31.714 124.046 31.7507 124.178 31.78V32H120.878V31.78C121.01 31.7507 121.134 31.714 121.252 31.67C121.384 31.6113 121.494 31.538 121.582 31.45C121.67 31.3473 121.736 31.2153 121.78 31.054C121.838 30.8927 121.868 30.68 121.868 30.416V25.246C121.868 23.8087 121.677 22.7453 121.296 22.056C120.929 21.352 120.247 21 119.25 21C118.839 21 118.45 21.0953 118.084 21.286C117.732 21.4767 117.416 21.7333 117.138 22.056C116.874 22.364 116.661 22.7233 116.5 23.134C116.353 23.5447 116.28 23.9627 116.28 24.388V30.416C116.28 30.68 116.302 30.8927 116.346 31.054C116.404 31.2153 116.478 31.3473 116.566 31.45C116.654 31.538 116.756 31.6113 116.874 31.67C117.006 31.714 117.138 31.7507 117.27 31.78V32H113.97V31.78C114.102 31.7507 114.226 31.714 114.344 31.67C114.476 31.6113 114.586 31.538 114.674 31.45C114.762 31.3473 114.828 31.2153 114.872 31.054C114.93 30.8927 114.96 30.68 114.96 30.416V25.246C114.96 23.8087 114.769 22.7453 114.388 22.056C114.021 21.352 113.339 21 112.342 21C111.931 21 111.542 21.0953 111.176 21.286C110.824 21.4767 110.508 21.7333 110.23 22.056C109.966 22.364 109.753 22.7233 109.592 23.134C109.445 23.5447 109.372 23.9627 109.372 24.388V30.416C109.372 30.68 109.394 30.8927 109.438 31.054C109.496 31.2153 109.57 31.3473 109.658 31.45C109.746 31.538 109.848 31.6113 109.966 31.67C110.098 31.714 110.23 31.7507 110.362 31.78V32H107.062V31.78ZM126.263 29.36C126.263 28.6267 126.447 28.04 126.813 27.6C127.195 27.1453 127.664 26.786 128.221 26.522C128.779 26.258 129.387 26.06 130.047 25.928C130.722 25.796 131.345 25.6713 131.917 25.554C132.504 25.4367 133.003 25.3047 133.413 25.158C133.824 25.0113 134.059 24.7987 134.117 24.52C134.103 23.9627 134.044 23.4713 133.941 23.046C133.839 22.606 133.677 22.2393 133.457 21.946C133.237 21.638 132.944 21.4033 132.577 21.242C132.211 21.0807 131.749 21 131.191 21C130.707 21 130.304 21.0733 129.981 21.22C129.659 21.352 129.387 21.5207 129.167 21.726C128.962 21.9167 128.793 22.1367 128.661 22.386C128.529 22.6207 128.405 22.8407 128.287 23.046C128.185 23.2367 128.067 23.4053 127.935 23.552C127.818 23.684 127.664 23.75 127.473 23.75C127.239 23.75 127.085 23.596 127.011 23.288C126.938 22.98 127.019 22.6427 127.253 22.276C127.488 21.8947 127.913 21.55 128.529 21.242C129.145 20.934 130.033 20.78 131.191 20.78C131.983 20.78 132.651 20.8973 133.193 21.132C133.736 21.3667 134.176 21.6747 134.513 22.056C134.851 22.4227 135.093 22.8407 135.239 23.31C135.386 23.7793 135.459 24.2487 135.459 24.718V30.394C135.459 30.8633 135.489 31.1933 135.547 31.384C135.621 31.56 135.76 31.648 135.965 31.648C136.053 31.648 136.127 31.6407 136.185 31.626C136.244 31.5967 136.325 31.5453 136.427 31.472L136.515 31.604C136.398 31.7067 136.259 31.802 136.097 31.89C135.936 31.9633 135.775 32 135.613 32C135.144 32 134.777 31.868 134.513 31.604C134.264 31.3253 134.139 30.9293 134.139 30.416V29.866C133.963 30.1007 133.736 30.3573 133.457 30.636C133.193 30.9147 132.878 31.1713 132.511 31.406C132.145 31.6407 131.727 31.8387 131.257 32C130.803 32.1467 130.297 32.22 129.739 32.22C129.241 32.22 128.779 32.154 128.353 32.022C127.928 31.89 127.561 31.7067 127.253 31.472C126.945 31.2227 126.703 30.922 126.527 30.57C126.351 30.2033 126.263 29.8 126.263 29.36ZM127.583 29.338C127.583 30.13 127.796 30.7753 128.221 31.274C128.647 31.758 129.241 32 130.003 32C130.561 32 131.089 31.8753 131.587 31.626C132.086 31.3767 132.526 31.0907 132.907 30.768C133.289 30.4307 133.589 30.0933 133.809 29.756C134.029 29.404 134.139 29.14 134.139 28.964V25.246V25.07C133.846 25.29 133.472 25.4587 133.017 25.576C132.577 25.6933 132.115 25.8033 131.631 25.906C131.147 26.0087 130.663 26.126 130.179 26.258C129.695 26.3753 129.263 26.5587 128.881 26.808C128.5 27.0427 128.185 27.3653 127.935 27.776C127.701 28.172 127.583 28.6927 127.583 29.338ZM142.321 32.22C141.529 32.22 140.869 32.1467 140.341 32C139.828 31.8533 139.417 31.692 139.109 31.516C138.743 31.3253 138.464 31.098 138.273 30.834V28.48H138.427C138.501 28.7147 138.603 29.03 138.735 29.426C138.882 29.822 139.095 30.2107 139.373 30.592C139.667 30.9733 140.048 31.3033 140.517 31.582C141.001 31.8607 141.603 32 142.321 32C143.275 32 144.059 31.8167 144.675 31.45C145.291 31.0687 145.599 30.5407 145.599 29.866C145.599 29.382 145.423 28.986 145.071 28.678C144.719 28.3553 144.272 28.0767 143.729 27.842C143.201 27.6073 142.629 27.3873 142.013 27.182C141.397 26.962 140.818 26.7127 140.275 26.434C139.747 26.1553 139.307 25.8253 138.955 25.444C138.603 25.048 138.427 24.542 138.427 23.926C138.427 22.9873 138.765 22.232 139.439 21.66C140.129 21.0733 141.089 20.78 142.321 20.78C142.747 20.78 143.143 20.824 143.509 20.912C143.876 20.9853 144.213 21.0807 144.521 21.198C144.844 21.3153 145.13 21.44 145.379 21.572C145.629 21.6893 145.834 21.7993 145.995 21.902V24.058H145.819C145.79 23.9553 145.702 23.7427 145.555 23.42C145.423 23.0827 145.218 22.738 144.939 22.386C144.661 22.0193 144.309 21.6967 143.883 21.418C143.458 21.1393 142.937 21 142.321 21C140.371 21 139.395 21.6967 139.395 23.09C139.395 23.6327 139.571 24.0727 139.923 24.41C140.275 24.7473 140.715 25.048 141.243 25.312C141.786 25.5613 142.365 25.7887 142.981 25.994C143.597 26.1993 144.169 26.4413 144.697 26.72C145.24 26.984 145.687 27.314 146.039 27.71C146.391 28.0913 146.567 28.59 146.567 29.206C146.567 30.0713 146.208 30.79 145.489 31.362C144.785 31.934 143.729 32.22 142.321 32.22ZM150.806 18.206H151.026V20.78H153.864V21H151.026V29.404C151.026 30.1813 151.136 30.7533 151.356 31.12C151.576 31.4867 151.928 31.67 152.412 31.67C152.808 31.67 153.167 31.5893 153.49 31.428C153.813 31.252 154.113 31.032 154.392 30.768L154.546 30.966C154.253 31.23 153.923 31.472 153.556 31.692C153.204 31.8973 152.771 32 152.258 32C151.319 32 150.659 31.758 150.278 31.274C149.897 30.79 149.706 30.0933 149.706 29.184V21H148.21V20.78C148.899 20.7067 149.471 20.494 149.926 20.142C150.381 19.79 150.674 19.1447 150.806 18.206ZM161.305 20.78C162.156 20.78 162.897 20.9267 163.527 21.22C164.158 21.4987 164.679 21.8873 165.089 22.386C165.5 22.8847 165.801 23.4713 165.991 24.146C166.197 24.8207 166.299 25.5393 166.299 26.302H157.169C157.184 27.1527 157.323 27.9007 157.587 28.546C157.866 29.1913 158.225 29.734 158.665 30.174C159.12 30.614 159.633 30.9513 160.205 31.186C160.792 31.406 161.408 31.516 162.053 31.516C162.801 31.516 163.513 31.3767 164.187 31.098C164.877 30.8193 165.434 30.4013 165.859 29.844L166.013 29.976C165.808 30.2547 165.559 30.5333 165.265 30.812C164.972 31.076 164.635 31.318 164.253 31.538C163.872 31.7433 163.447 31.9047 162.977 32.022C162.508 32.154 161.995 32.22 161.437 32.22C160.631 32.22 159.875 32.0953 159.171 31.846C158.482 31.582 157.881 31.208 157.367 30.724C156.869 30.2253 156.473 29.624 156.179 28.92C155.901 28.2013 155.761 27.3947 155.761 26.5C155.761 25.6053 155.893 24.806 156.157 24.102C156.436 23.398 156.817 22.804 157.301 22.32C157.8 21.8213 158.387 21.44 159.061 21.176C159.751 20.912 160.499 20.78 161.305 20.78ZM164.935 25.972C164.891 24.388 164.547 23.1633 163.901 22.298C163.256 21.4327 162.347 21 161.173 21C160.675 21 160.183 21.11 159.699 21.33C159.23 21.55 158.805 21.8727 158.423 22.298C158.057 22.7233 157.756 23.244 157.521 23.86C157.301 24.476 157.184 25.18 157.169 25.972H164.935ZM168.507 31.78C168.639 31.7507 168.764 31.714 168.881 31.67C169.013 31.6113 169.123 31.538 169.211 31.45C169.299 31.3473 169.365 31.2153 169.409 31.054C169.468 30.8927 169.497 30.68 169.497 30.416V22.694C169.497 22.1807 169.402 21.8433 169.211 21.682C169.02 21.506 168.786 21.3887 168.507 21.33V21.11L170.817 20.89V23.244C171.125 22.5107 171.565 21.9167 172.137 21.462C172.709 21.0073 173.391 20.78 174.183 20.78C174.872 20.78 175.408 20.8973 175.789 21.132C176.17 21.3667 176.427 21.6307 176.559 21.924C176.706 22.2027 176.735 22.4667 176.647 22.716C176.574 22.9507 176.405 23.068 176.141 23.068C175.862 23.068 175.672 22.9653 175.569 22.76C175.481 22.54 175.386 22.3053 175.283 22.056C175.195 21.8067 175.056 21.5793 174.865 21.374C174.674 21.154 174.344 21.044 173.875 21.044C173.479 21.044 173.098 21.1467 172.731 21.352C172.379 21.5573 172.064 21.836 171.785 22.188C171.521 22.54 171.301 22.9507 171.125 23.42C170.949 23.8747 170.846 24.3587 170.817 24.872V30.416C170.817 30.68 170.839 30.8927 170.883 31.054C170.942 31.2153 171.015 31.3473 171.103 31.45C171.191 31.538 171.294 31.6113 171.411 31.67C171.543 31.714 171.675 31.7507 171.807 31.78V32H168.507V31.78Z" fill="#008281"/>
</svg>
