<svg width="28" height="28" viewBox="0 0 28 28" fill="none" xmlns="http://www.w3.org/2000/svg">
<path d="M26.4545 28C27.3078 28 27.9998 27.308 27.9998 26.4547V1.54543C27.9998 0.691776 27.3078 0 26.4545 0H1.54533C0.691672 0 0 0.691776 0 1.54543V26.4547C0 27.308 0.691672 28 1.54533 28H26.4545Z" fill="white"/>
<path d="M15.518 23.0192V14.9032H18.2423L18.6501 11.7402H15.518V9.72079C15.518 8.80502 15.7722 8.18098 17.0855 8.18098L18.7604 8.1802V5.35124C18.4707 5.31276 17.4765 5.22662 16.3198 5.22662C13.9049 5.22662 12.2517 6.70062 12.2517 9.40763V11.7402H9.52051V14.9032H12.2517V23.0192H15.518Z" fill="#008281"/>
</svg>
