<svg width="29" height="28" viewBox="0 0 29 28" fill="none" xmlns="http://www.w3.org/2000/svg">
<rect x="0.727051" width="27.9998" height="27.9998" rx="1.5" fill="white"/>
<path d="M14.8975 5.09088C11.1081 5.09088 9.99982 5.09479 9.7844 5.11266C9.00674 5.17731 8.52284 5.29975 7.99565 5.56224C7.58937 5.76399 7.26895 5.99785 6.95272 6.32567C6.37681 6.92352 6.02777 7.65904 5.90142 8.53333C5.83999 8.95778 5.82212 9.04434 5.81849 11.2123C5.8171 11.935 5.81849 12.8861 5.81849 14.1618C5.81849 17.9483 5.82268 19.0555 5.84083 19.2705C5.90366 20.0272 6.02233 20.5033 6.27364 21.0241C6.75391 22.021 7.67118 22.7693 8.7518 23.0486C9.12597 23.1449 9.53923 23.198 10.0698 23.2231C10.2945 23.2329 12.5856 23.2398 14.8781 23.2398C17.1706 23.2398 19.4631 23.2371 19.6823 23.2259C20.2966 23.197 20.6533 23.1491 21.0477 23.0472C22.1353 22.7665 23.0358 22.0294 23.5259 21.0185C23.7723 20.5103 23.8972 20.016 23.9538 19.2988C23.9661 19.1424 23.9712 16.6493 23.9712 14.1594C23.9712 11.6692 23.9657 9.18061 23.9534 9.02424C23.8961 8.29542 23.7712 7.80536 23.5168 7.28737C23.3081 6.86335 23.0763 6.54669 22.7398 6.22291C22.1393 5.64936 21.405 5.30031 20.5299 5.17409C20.1059 5.1128 20.0214 5.09465 17.8518 5.09088H14.8975Z" fill="url(#paint0_radial_323_523)"/>
<path d="M14.8975 5.09088C11.1081 5.09088 9.99982 5.09479 9.7844 5.11266C9.00674 5.17731 8.52284 5.29975 7.99565 5.56224C7.58937 5.76399 7.26895 5.99785 6.95272 6.32567C6.37681 6.92352 6.02777 7.65904 5.90142 8.53333C5.83999 8.95778 5.82212 9.04434 5.81849 11.2123C5.8171 11.935 5.81849 12.8861 5.81849 14.1618C5.81849 17.9483 5.82268 19.0555 5.84083 19.2705C5.90366 20.0272 6.02233 20.5033 6.27364 21.0241C6.75391 22.021 7.67118 22.7693 8.7518 23.0486C9.12597 23.1449 9.53923 23.198 10.0698 23.2231C10.2945 23.2329 12.5856 23.2398 14.8781 23.2398C17.1706 23.2398 19.4631 23.2371 19.6823 23.2259C20.2966 23.197 20.6533 23.1491 21.0477 23.0472C22.1353 22.7665 23.0358 22.0294 23.5259 21.0185C23.7723 20.5103 23.8972 20.016 23.9538 19.2988C23.9661 19.1424 23.9712 16.6493 23.9712 14.1594C23.9712 11.6692 23.9657 9.18061 23.9534 9.02424C23.8961 8.29542 23.7712 7.80536 23.5168 7.28737C23.3081 6.86335 23.0763 6.54669 22.7398 6.22291C22.1393 5.64936 21.405 5.30031 20.5299 5.17409C20.1059 5.1128 20.0214 5.09465 17.8518 5.09088H14.8975Z" fill="#008281"/>
<path d="M14.895 7.46442C13.0749 7.46442 12.8465 7.47237 12.1317 7.50491C11.4183 7.53758 10.9313 7.65053 10.5052 7.81626C10.0644 7.98743 9.69052 8.21641 9.31803 8.58905C8.94526 8.96155 8.71629 9.33545 8.54456 9.77609C8.37842 10.2023 8.26533 10.6895 8.23322 11.4027C8.20125 12.1175 8.19287 12.3461 8.19287 14.1661C8.19287 15.9862 8.20097 16.2139 8.23336 16.9288C8.26617 17.6422 8.37912 18.1292 8.5447 18.5554C8.71601 18.9961 8.94498 19.37 9.31761 19.7425C9.68996 20.1153 10.0639 20.3449 10.5043 20.516C10.9307 20.6818 11.4178 20.7947 12.1311 20.8274C12.846 20.8599 13.0742 20.8679 14.8941 20.8679C16.7143 20.8679 16.942 20.8599 17.6568 20.8274C18.3703 20.7947 18.8578 20.6818 19.2842 20.516C19.7248 20.3449 20.0981 20.1153 20.4705 19.7425C20.8433 19.37 21.0722 18.9961 21.2439 18.5555C21.4087 18.1292 21.5218 17.6421 21.5553 16.9289C21.5874 16.2141 21.5958 15.9862 21.5958 14.1661C21.5958 12.3461 21.5874 12.1176 21.5553 11.4028C21.5218 10.6893 21.4087 10.2023 21.2439 9.77623C21.0722 9.33545 20.8433 8.96155 20.4705 8.58905C20.0977 8.21627 19.7249 7.98729 19.2838 7.81626C18.8565 7.65053 18.3693 7.53758 17.6558 7.50491C16.941 7.47237 16.7134 7.46442 14.8929 7.46442H14.895ZM14.2938 8.67212C14.4722 8.67184 14.6713 8.67212 14.895 8.67212C16.6843 8.67212 16.8963 8.67855 17.6029 8.71066C18.2563 8.74054 18.6109 8.84972 18.8472 8.94145C19.1599 9.06292 19.3829 9.20812 19.6173 9.44268C19.8518 9.67724 19.997 9.90063 20.1188 10.2134C20.2105 10.4493 20.3198 10.804 20.3496 11.4574C20.3817 12.1639 20.3887 12.3761 20.3887 14.1646C20.3887 15.9531 20.3817 16.1653 20.3496 16.8718C20.3197 17.5252 20.2105 17.8799 20.1188 18.1158C19.9973 18.4286 19.8518 18.6513 19.6173 18.8857C19.3827 19.1202 19.1601 19.2655 18.8472 19.3869C18.6112 19.4791 18.2563 19.588 17.6029 19.6179C16.8965 19.65 16.6843 19.6569 14.895 19.6569C13.1055 19.6569 12.8934 19.65 12.187 19.6179C11.5336 19.5877 11.179 19.4785 10.9426 19.3868C10.6299 19.2653 10.4065 19.1201 10.1719 18.8856C9.93736 18.651 9.79216 18.4282 9.67042 18.1153C9.57869 17.8793 9.46937 17.5247 9.43963 16.8713C9.40752 16.1648 9.4011 15.9526 9.4011 14.1629C9.4011 12.3733 9.40752 12.1622 9.43963 11.4557C9.46951 10.8023 9.57869 10.4477 9.67042 10.2114C9.79188 9.89868 9.93736 9.67529 10.1719 9.44073C10.4065 9.20617 10.6299 9.06096 10.9426 8.93921C11.1788 8.84707 11.5336 8.73816 12.187 8.70814C12.8052 8.68022 13.0448 8.67184 14.2938 8.67045V8.67212ZM18.4722 9.78489C18.0282 9.78489 17.668 10.1447 17.668 10.5888C17.668 11.0328 18.0282 11.393 18.4722 11.393C18.9161 11.393 19.2764 11.0328 19.2764 10.5888C19.2764 10.1448 18.9161 9.78461 18.4722 9.78461V9.78489ZM14.895 10.7245C12.9944 10.7245 11.4534 12.2655 11.4534 14.1661C11.4534 16.0668 12.9944 17.6071 14.895 17.6071C16.7955 17.6071 18.3359 16.0668 18.3359 14.1661C18.3359 12.2655 16.7954 10.7245 14.8948 10.7245H14.895ZM14.895 11.9322C16.1286 11.9322 17.1288 12.9323 17.1288 14.1661C17.1288 15.3998 16.1286 16.4 14.895 16.4C13.6612 16.4 12.6611 15.3998 12.6611 14.1661C12.6611 12.9323 13.6612 11.9322 14.895 11.9322Z" fill="white"/>
<defs>
<radialGradient id="paint0_radial_323_523" cx="0" cy="0" r="1" gradientUnits="userSpaceOnUse" gradientTransform="translate(10.6399 24.6377) rotate(-90) scale(17.987 16.7334)">
<stop stop-color="#FFDD55"/>
<stop offset="0.1" stop-color="#FFDD55"/>
<stop offset="0.5" stop-color="#FF543E"/>
<stop offset="1" stop-color="#C837AB"/>
</radialGradient>
</defs>
</svg>
