<svg width="29" height="28" viewBox="0 0 29 28" fill="none" xmlns="http://www.w3.org/2000/svg">
<rect x="0.181152" width="27.9998" height="27.9998" rx="1.5" fill="white"/>
<path d="M9.63205 23.4514V11.063H5.51472V23.4514H9.63205ZM7.57416 9.37152C9.009 9.37152 9.90344 8.42018 9.90344 7.2312C9.87683 6.01584 9.009 5.09088 7.60112 5.09088C6.19206 5.09088 5.27148 6.01584 5.27148 7.2312C5.27148 8.42018 6.16474 9.37152 7.54696 9.37152H7.57416Z" fill="#008281"/>
<path d="M11.9106 23.4514H16.0287V16.5332C16.0287 16.1628 16.0555 15.7927 16.1644 15.5282C16.4614 14.7881 17.1394 14.0221 18.2766 14.0221C19.7668 14.0221 20.3624 15.1585 20.3624 16.8236V23.4514H24.4796V16.3478C24.4796 12.5426 22.4487 10.7721 19.7392 10.7721C17.5182 10.7721 16.5426 12.0133 16.0009 12.859H16.0287V11.063H11.9106C11.9653 12.2253 11.9106 23.4514 11.9106 23.4514Z" fill="#008281"/>
</svg>
