<svg width="232" height="63" viewBox="0 0 232 63" fill="none" xmlns="http://www.w3.org/2000/svg">
<path d="M31.75 62.5C48.7328 62.5 62.5 48.7328 62.5 31.75C62.5 14.7672 48.7328 1 31.75 1C14.7672 1 1 14.7672 1 31.75C1 48.7328 14.7672 62.5 31.75 62.5Z" stroke="#F9F5F3" stroke-width="0.8" stroke-miterlimit="10"/>
<path d="M61.4844 23.9043H1.95312" stroke="#F9F5F3" stroke-width="0.8" stroke-miterlimit="10"/>
<path d="M62.4992 32.0283H1.00781" stroke="#F9F5F3" stroke-width="0.8" stroke-miterlimit="10"/>
<path d="M18.742 25.9348C18.765 16.8239 13.3646 13.1681 8.73438 11.708" stroke="#F9F5F3" stroke-width="0.8" stroke-miterlimit="10"/>
<path d="M54.7742 11.7285C50.2734 13.2317 45.0281 16.9191 44.7148 25.9352" stroke="#F9F5F3" stroke-width="0.8" stroke-miterlimit="10"/>
<path d="M18.7344 59.6166V52.2417V39.8169V22.627" stroke="#F9F5F3" stroke-width="0.8" stroke-miterlimit="10"/>
<path d="M44.7422 22.627V39.8169V59.6166" stroke="#F9F5F3" stroke-width="0.8" stroke-miterlimit="10"/>
<path d="M18.7358 22.6265C18.7102 20.9041 19.0273 19.1937 19.6688 17.595C20.3102 15.9962 21.2631 14.5409 22.4721 13.3138C23.6811 12.0867 25.122 11.1123 26.7111 10.4471C28.3001 9.78198 30.0055 9.43945 31.7282 9.43945C33.4508 9.43945 35.1563 9.78198 36.7453 10.4471C38.3343 11.1123 39.7753 12.0867 40.9843 13.3138C42.1933 14.5409 43.1462 15.9962 43.7876 17.595C44.429 19.1937 44.7462 20.9041 44.7206 22.6265" stroke="#F9F5F3" stroke-width="0.8" stroke-miterlimit="10"/>
<path d="M37.5259 24.0393C37.5259 23.2784 37.376 22.5249 37.0848 21.822C36.7936 21.119 36.3668 20.4802 35.8288 19.9422C35.2908 19.4042 34.652 18.9774 33.949 18.6862C33.246 18.395 32.4926 18.2451 31.7317 18.2451C30.9708 18.2451 30.2173 18.395 29.5143 18.6862C28.8114 18.9774 28.1726 19.4042 27.6346 19.9422C27.0965 20.4802 26.6697 21.119 26.3786 21.822C26.0874 22.5249 25.9375 23.2784 25.9375 24.0393" stroke="#F9F5F3" stroke-width="0.8" stroke-miterlimit="10"/>
<path d="M10.0547 24.0393C10.0539 23.2774 9.90303 22.5231 9.61068 21.8195C9.31833 21.116 8.89022 20.4769 8.35081 19.9388C7.8114 19.4007 7.17125 18.9742 6.46695 18.6836C5.76265 18.393 5.00799 18.244 4.24609 18.2451" stroke="#F9F5F3" stroke-width="0.8" stroke-miterlimit="10"/>
<path d="M53.7031 24.0393C53.7046 22.5031 54.3156 21.0302 55.4019 19.9439C56.4882 18.8576 57.9611 18.2466 59.4973 18.2451" stroke="#F9F5F3" stroke-width="0.8" stroke-miterlimit="10"/>
<path d="M31.7305 18.2446V9.63379" stroke="#F9F5F3" stroke-width="0.8" stroke-miterlimit="10"/>
<path d="M28.2557 19.4115L23.3984 12.6631" stroke="#F9F5F3" stroke-width="0.8" stroke-miterlimit="10"/>
<path d="M35.4102 19.4115L40.2674 12.6631" stroke="#F9F5F3" stroke-width="0.8" stroke-miterlimit="10"/>
<path d="M5.25781 16.1299C5.25781 16.1299 11.8021 16.9605 12.4431 23.9043" stroke="#F9F5F3" stroke-width="0.8" stroke-miterlimit="10"/>
<path d="M58.361 16.1299C58.361 16.1299 51.8167 16.9605 51.1758 23.9043" stroke="#F9F5F3" stroke-width="0.8" stroke-miterlimit="10"/>
<path d="M37.9023 61.9611V42.9834" stroke="#F9F5F3" stroke-width="0.8" stroke-miterlimit="10"/>
<path d="M25.6562 61.9611V42.9834" stroke="#F9F5F3" stroke-width="0.8" stroke-miterlimit="10"/>
<path d="M10.0391 32.0439V53.525" stroke="#F9F5F3" stroke-width="0.8" stroke-miterlimit="10"/>
<path d="M12.4297 32.0439V55.6719" stroke="#F9F5F3" stroke-width="0.8" stroke-miterlimit="10"/>
<path d="M53.5781 32.0439V53.525" stroke="#F9F5F3" stroke-width="0.8" stroke-miterlimit="10"/>
<path d="M51.1875 32.0439V55.6719" stroke="#F9F5F3" stroke-width="0.8" stroke-miterlimit="10"/>
<path d="M37.8942 43.0259C37.8942 39.3672 35.1494 36.3896 31.7752 36.3896C28.401 36.3896 25.6562 39.3701 25.6562 43.0259" stroke="#F9F5F3" stroke-width="0.8" stroke-miterlimit="10"/>
<path d="M83.87 40.3C82.79 40.3 81.89 40.2 81.17 40C80.47 39.8 79.91 39.58 79.49 39.34C78.99 39.08 78.61 38.77 78.35 38.41V35.2H78.56C78.66 35.52 78.8 35.95 78.98 36.49C79.18 37.03 79.47 37.56 79.85 38.08C80.25 38.6 80.77 39.05 81.41 39.43C82.07 39.81 82.89 40 83.87 40C85.17 40 86.24 39.75 87.08 39.25C87.92 38.73 88.34 38.01 88.34 37.09C88.34 36.43 88.1 35.89 87.62 35.47C87.14 35.03 86.53 34.65 85.79 34.33C85.07 34.01 84.29 33.71 83.45 33.43C82.61 33.13 81.82 32.79 81.08 32.41C80.36 32.03 79.76 31.58 79.28 31.06C78.8 30.52 78.56 29.83 78.56 28.99C78.56 27.71 79.02 26.68 79.94 25.9C80.88 25.1 82.19 24.7 83.87 24.7C84.45 24.7 84.99 24.76 85.49 24.88C85.99 24.98 86.45 25.11 86.87 25.27C87.31 25.43 87.7 25.6 88.04 25.78C88.38 25.94 88.66 26.09 88.88 26.23V29.17H88.64C88.6 29.03 88.48 28.74 88.28 28.3C88.1 27.84 87.82 27.37 87.44 26.89C87.06 26.39 86.58 25.95 86 25.57C85.42 25.19 84.71 25 83.87 25C81.21 25 79.88 25.95 79.88 27.85C79.88 28.59 80.12 29.19 80.6 29.65C81.08 30.11 81.68 30.52 82.4 30.88C83.14 31.22 83.93 31.53 84.77 31.81C85.61 32.09 86.39 32.42 87.11 32.8C87.85 33.16 88.46 33.61 88.94 34.15C89.42 34.67 89.66 35.35 89.66 36.19C89.66 37.37 89.17 38.35 88.19 39.13C87.23 39.91 85.79 40.3 83.87 40.3ZM95.4404 21.19H95.7404V24.7H99.6104V25H95.7404V36.46C95.7404 37.52 95.8904 38.3 96.1904 38.8C96.4904 39.3 96.9704 39.55 97.6304 39.55C98.1704 39.55 98.6604 39.44 99.1004 39.22C99.5404 38.98 99.9504 38.68 100.33 38.32L100.54 38.59C100.14 38.95 99.6904 39.28 99.1904 39.58C98.7104 39.86 98.1204 40 97.4204 40C96.1404 40 95.2404 39.67 94.7204 39.01C94.2004 38.35 93.9404 37.4 93.9404 36.16V25H91.9004V24.7C92.8404 24.6 93.6204 24.31 94.2404 23.83C94.8604 23.35 95.2604 22.47 95.4404 21.19ZM102.637 36.4C102.637 35.4 102.887 34.6 103.387 34C103.907 33.38 104.547 32.89 105.307 32.53C106.067 32.17 106.897 31.9 107.797 31.72C108.717 31.54 109.567 31.37 110.347 31.21C111.147 31.05 111.827 30.87 112.387 30.67C112.947 30.47 113.267 30.18 113.347 29.8C113.327 29.04 113.247 28.37 113.107 27.79C112.967 27.19 112.747 26.69 112.447 26.29C112.147 25.87 111.747 25.55 111.247 25.33C110.747 25.11 110.117 25 109.357 25C108.697 25 108.147 25.1 107.707 25.3C107.267 25.48 106.897 25.71 106.597 25.99C106.317 26.25 106.087 26.55 105.907 26.89C105.727 27.21 105.557 27.51 105.397 27.79C105.257 28.05 105.097 28.28 104.917 28.48C104.757 28.66 104.547 28.75 104.287 28.75C103.967 28.75 103.757 28.54 103.657 28.12C103.557 27.7 103.667 27.24 103.987 26.74C104.307 26.22 104.887 25.75 105.727 25.33C106.567 24.91 107.777 24.7 109.357 24.7C110.437 24.7 111.347 24.86 112.087 25.18C112.827 25.5 113.427 25.92 113.887 26.44C114.347 26.94 114.677 27.51 114.877 28.15C115.077 28.79 115.177 29.43 115.177 30.07V37.81C115.177 38.45 115.217 38.9 115.297 39.16C115.397 39.4 115.587 39.52 115.867 39.52C115.987 39.52 116.087 39.51 116.167 39.49C116.247 39.45 116.357 39.38 116.497 39.28L116.617 39.46C116.457 39.6 116.267 39.73 116.047 39.85C115.827 39.95 115.607 40 115.387 40C114.747 40 114.247 39.82 113.887 39.46C113.547 39.08 113.377 38.54 113.377 37.84V37.09C113.137 37.41 112.827 37.76 112.447 38.14C112.087 38.52 111.657 38.87 111.157 39.19C110.657 39.51 110.087 39.78 109.447 40C108.827 40.2 108.137 40.3 107.377 40.3C106.697 40.3 106.067 40.21 105.487 40.03C104.907 39.85 104.407 39.6 103.987 39.28C103.567 38.94 103.237 38.53 102.997 38.05C102.757 37.55 102.637 37 102.637 36.4ZM104.437 36.37C104.437 37.45 104.727 38.33 105.307 39.01C105.887 39.67 106.697 40 107.737 40C108.497 40 109.217 39.83 109.897 39.49C110.577 39.15 111.177 38.76 111.697 38.32C112.217 37.86 112.627 37.4 112.927 36.94C113.227 36.46 113.377 36.1 113.377 35.86V30.79V30.55C112.977 30.85 112.467 31.08 111.847 31.24C111.247 31.4 110.617 31.55 109.957 31.69C109.297 31.83 108.637 31.99 107.977 32.17C107.317 32.33 106.727 32.58 106.207 32.92C105.687 33.24 105.257 33.68 104.917 34.24C104.597 34.78 104.437 35.49 104.437 36.37ZM122.328 25V25.3C121.908 25.34 121.598 25.5 121.398 25.78C121.198 26.04 121.248 26.52 121.548 27.22L126.198 37.84C126.718 36.66 127.258 35.45 127.818 34.21C128.398 32.95 128.918 31.79 129.378 30.73C129.938 29.51 130.478 28.32 130.998 27.16C131.138 26.8 131.198 26.5 131.178 26.26C131.158 26.02 131.078 25.83 130.938 25.69C130.818 25.55 130.658 25.45 130.458 25.39C130.278 25.33 130.098 25.3 129.918 25.3V25H133.308V25.3C132.928 25.38 132.578 25.55 132.258 25.81C131.938 26.05 131.618 26.52 131.298 27.22C130.778 28.4 130.238 29.6 129.678 30.82C129.138 32.04 128.608 33.23 128.088 34.39C127.568 35.53 127.078 36.62 126.618 37.66C126.158 38.7 125.738 39.63 125.358 40.45C124.978 41.29 124.658 41.99 124.398 42.55C124.158 43.13 123.988 43.53 123.888 43.75C123.368 44.95 122.838 45.8 122.298 46.3C121.778 46.8 121.148 47.05 120.408 47.05C120.108 47.05 119.818 46.97 119.538 46.81C119.258 46.67 119.118 46.43 119.118 46.09C119.118 45.77 119.228 45.54 119.448 45.4C119.668 45.26 119.928 45.19 120.228 45.19C120.468 45.19 120.698 45.21 120.918 45.25C121.158 45.31 121.388 45.34 121.608 45.34C121.948 45.34 122.288 45.21 122.628 44.95C122.988 44.69 123.368 44.13 123.768 43.27C123.848 43.09 124.018 42.71 124.278 42.13C124.538 41.55 124.858 40.84 125.238 40L119.538 27.22C119.218 26.52 118.948 26.05 118.728 25.81C118.508 25.55 118.208 25.38 117.828 25.3V25H122.328ZM135.72 39.7C135.9 39.66 136.07 39.61 136.23 39.55C136.41 39.47 136.56 39.37 136.68 39.25C136.8 39.11 136.89 38.93 136.95 38.71C137.03 38.49 137.07 38.2 137.07 37.84V27.31C137.07 26.61 136.94 26.15 136.68 25.93C136.42 25.69 136.1 25.53 135.72 25.45V25.15L138.87 24.85V27.55C139.25 26.79 139.79 26.13 140.49 25.57C141.21 24.99 142.12 24.7 143.22 24.7C144.64 24.7 145.74 25.03 146.52 25.69C147.3 26.35 147.82 27.14 148.08 28.06C148.24 27.62 148.45 27.2 148.71 26.8C148.99 26.4 149.32 26.05 149.7 25.75C150.08 25.43 150.51 25.18 150.99 25C151.49 24.8 152.04 24.7 152.64 24.7C153.54 24.7 154.31 24.84 154.95 25.12C155.61 25.4 156.14 25.78 156.54 26.26C156.94 26.72 157.23 27.25 157.41 27.85C157.61 28.43 157.71 29.02 157.71 29.62V37.84C157.71 38.2 157.74 38.49 157.8 38.71C157.88 38.93 157.98 39.11 158.1 39.25C158.22 39.37 158.36 39.47 158.52 39.55C158.7 39.61 158.88 39.66 159.06 39.7V40H154.56V39.7C154.74 39.66 154.91 39.61 155.07 39.55C155.25 39.47 155.4 39.37 155.52 39.25C155.64 39.11 155.73 38.93 155.79 38.71C155.87 38.49 155.91 38.2 155.91 37.84V30.79C155.91 28.83 155.65 27.38 155.13 26.44C154.63 25.48 153.7 25 152.34 25C151.78 25 151.25 25.13 150.75 25.39C150.27 25.65 149.84 26 149.46 26.44C149.1 26.86 148.81 27.35 148.59 27.91C148.39 28.47 148.29 29.04 148.29 29.62V37.84C148.29 38.2 148.32 38.49 148.38 38.71C148.46 38.93 148.56 39.11 148.68 39.25C148.8 39.37 148.94 39.47 149.1 39.55C149.28 39.61 149.46 39.66 149.64 39.7V40H145.14V39.7C145.32 39.66 145.49 39.61 145.65 39.55C145.83 39.47 145.98 39.37 146.1 39.25C146.22 39.11 146.31 38.93 146.37 38.71C146.45 38.49 146.49 38.2 146.49 37.84V30.79C146.49 28.83 146.23 27.38 145.71 26.44C145.21 25.48 144.28 25 142.92 25C142.36 25 141.83 25.13 141.33 25.39C140.85 25.65 140.42 26 140.04 26.44C139.68 26.86 139.39 27.35 139.17 27.91C138.97 28.47 138.87 29.04 138.87 29.62V37.84C138.87 38.2 138.9 38.49 138.96 38.71C139.04 38.93 139.14 39.11 139.26 39.25C139.38 39.37 139.52 39.47 139.68 39.55C139.86 39.61 140.04 39.66 140.22 39.7V40H135.72V39.7ZM161.905 36.4C161.905 35.4 162.155 34.6 162.655 34C163.175 33.38 163.815 32.89 164.575 32.53C165.335 32.17 166.165 31.9 167.065 31.72C167.985 31.54 168.835 31.37 169.615 31.21C170.415 31.05 171.095 30.87 171.655 30.67C172.215 30.47 172.535 30.18 172.615 29.8C172.595 29.04 172.515 28.37 172.375 27.79C172.235 27.19 172.015 26.69 171.715 26.29C171.415 25.87 171.015 25.55 170.515 25.33C170.015 25.11 169.385 25 168.625 25C167.965 25 167.415 25.1 166.975 25.3C166.535 25.48 166.165 25.71 165.865 25.99C165.585 26.25 165.355 26.55 165.175 26.89C164.995 27.21 164.825 27.51 164.665 27.79C164.525 28.05 164.365 28.28 164.185 28.48C164.025 28.66 163.815 28.75 163.555 28.75C163.235 28.75 163.025 28.54 162.925 28.12C162.825 27.7 162.935 27.24 163.255 26.74C163.575 26.22 164.155 25.75 164.995 25.33C165.835 24.91 167.045 24.7 168.625 24.7C169.705 24.7 170.615 24.86 171.355 25.18C172.095 25.5 172.695 25.92 173.155 26.44C173.615 26.94 173.945 27.51 174.145 28.15C174.345 28.79 174.445 29.43 174.445 30.07V37.81C174.445 38.45 174.485 38.9 174.565 39.16C174.665 39.4 174.855 39.52 175.135 39.52C175.255 39.52 175.355 39.51 175.435 39.49C175.515 39.45 175.625 39.38 175.765 39.28L175.885 39.46C175.725 39.6 175.535 39.73 175.315 39.85C175.095 39.95 174.875 40 174.655 40C174.015 40 173.515 39.82 173.155 39.46C172.815 39.08 172.645 38.54 172.645 37.84V37.09C172.405 37.41 172.095 37.76 171.715 38.14C171.355 38.52 170.925 38.87 170.425 39.19C169.925 39.51 169.355 39.78 168.715 40C168.095 40.2 167.405 40.3 166.645 40.3C165.965 40.3 165.335 40.21 164.755 40.03C164.175 39.85 163.675 39.6 163.255 39.28C162.835 38.94 162.505 38.53 162.265 38.05C162.025 37.55 161.905 37 161.905 36.4ZM163.705 36.37C163.705 37.45 163.995 38.33 164.575 39.01C165.155 39.67 165.965 40 167.005 40C167.765 40 168.485 39.83 169.165 39.49C169.845 39.15 170.445 38.76 170.965 38.32C171.485 37.86 171.895 37.4 172.195 36.94C172.495 36.46 172.645 36.1 172.645 35.86V30.79V30.55C172.245 30.85 171.735 31.08 171.115 31.24C170.515 31.4 169.885 31.55 169.225 31.69C168.565 31.83 167.905 31.99 167.245 32.17C166.585 32.33 165.995 32.58 165.475 32.92C164.955 33.24 164.525 33.68 164.185 34.24C163.865 34.78 163.705 35.49 163.705 36.37ZM183.802 40.3C182.722 40.3 181.822 40.2 181.102 40C180.402 39.8 179.842 39.58 179.422 39.34C178.922 39.08 178.542 38.77 178.282 38.41V35.2H178.492C178.592 35.52 178.732 35.95 178.912 36.49C179.112 37.03 179.402 37.56 179.782 38.08C180.182 38.6 180.702 39.05 181.342 39.43C182.002 39.81 182.822 40 183.802 40C185.102 40 186.172 39.75 187.012 39.25C187.852 38.73 188.272 38.01 188.272 37.09C188.272 36.43 188.032 35.89 187.552 35.47C187.072 35.03 186.462 34.65 185.722 34.33C185.002 34.01 184.222 33.71 183.382 33.43C182.542 33.13 181.752 32.79 181.012 32.41C180.292 32.03 179.692 31.58 179.212 31.06C178.732 30.52 178.492 29.83 178.492 28.99C178.492 27.71 178.952 26.68 179.872 25.9C180.812 25.1 182.122 24.7 183.802 24.7C184.382 24.7 184.922 24.76 185.422 24.88C185.922 24.98 186.382 25.11 186.802 25.27C187.242 25.43 187.632 25.6 187.972 25.78C188.312 25.94 188.592 26.09 188.812 26.23V29.17H188.572C188.532 29.03 188.412 28.74 188.212 28.3C188.032 27.84 187.752 27.37 187.372 26.89C186.992 26.39 186.512 25.95 185.932 25.57C185.352 25.19 184.642 25 183.802 25C181.142 25 179.812 25.95 179.812 27.85C179.812 28.59 180.052 29.19 180.532 29.65C181.012 30.11 181.612 30.52 182.332 30.88C183.072 31.22 183.862 31.53 184.702 31.81C185.542 32.09 186.322 32.42 187.042 32.8C187.782 33.16 188.392 33.61 188.872 34.15C189.352 34.67 189.592 35.35 189.592 36.19C189.592 37.37 189.102 38.35 188.122 39.13C187.162 39.91 185.722 40.3 183.802 40.3ZM195.372 21.19H195.672V24.7H199.542V25H195.672V36.46C195.672 37.52 195.822 38.3 196.122 38.8C196.422 39.3 196.902 39.55 197.562 39.55C198.102 39.55 198.592 39.44 199.032 39.22C199.472 38.98 199.882 38.68 200.262 38.32L200.472 38.59C200.072 38.95 199.622 39.28 199.122 39.58C198.642 39.86 198.052 40 197.352 40C196.072 40 195.172 39.67 194.652 39.01C194.132 38.35 193.872 37.4 193.872 36.16V25H191.832V24.7C192.772 24.6 193.552 24.31 194.172 23.83C194.792 23.35 195.192 22.47 195.372 21.19ZM209.689 24.7C210.849 24.7 211.859 24.9 212.719 25.3C213.579 25.68 214.289 26.21 214.849 26.89C215.409 27.57 215.819 28.37 216.079 29.29C216.359 30.21 216.499 31.19 216.499 32.23H204.049C204.069 33.39 204.259 34.41 204.619 35.29C204.999 36.17 205.489 36.91 206.089 37.51C206.709 38.11 207.409 38.57 208.189 38.89C208.989 39.19 209.829 39.34 210.709 39.34C211.729 39.34 212.699 39.15 213.619 38.77C214.559 38.39 215.319 37.82 215.899 37.06L216.109 37.24C215.829 37.62 215.489 38 215.089 38.38C214.689 38.74 214.229 39.07 213.709 39.37C213.189 39.65 212.609 39.87 211.969 40.03C211.329 40.21 210.629 40.3 209.869 40.3C208.769 40.3 207.739 40.13 206.779 39.79C205.839 39.43 205.019 38.92 204.319 38.26C203.639 37.58 203.099 36.76 202.699 35.8C202.319 34.82 202.129 33.72 202.129 32.5C202.129 31.28 202.309 30.19 202.669 29.23C203.049 28.27 203.569 27.46 204.229 26.8C204.909 26.12 205.709 25.6 206.629 25.24C207.569 24.88 208.589 24.7 209.689 24.7ZM214.639 31.78C214.579 29.62 214.109 27.95 213.229 26.77C212.349 25.59 211.109 25 209.509 25C208.829 25 208.159 25.15 207.499 25.45C206.859 25.75 206.279 26.19 205.759 26.77C205.259 27.35 204.849 28.06 204.529 28.9C204.229 29.74 204.069 30.7 204.049 31.78H214.639ZM219.509 39.7C219.689 39.66 219.859 39.61 220.019 39.55C220.199 39.47 220.349 39.37 220.469 39.25C220.589 39.11 220.679 38.93 220.739 38.71C220.819 38.49 220.859 38.2 220.859 37.84V27.31C220.859 26.61 220.729 26.15 220.469 25.93C220.209 25.69 219.889 25.53 219.509 25.45V25.15L222.659 24.85V28.06C223.079 27.06 223.679 26.25 224.459 25.63C225.239 25.01 226.169 24.7 227.249 24.7C228.189 24.7 228.919 24.86 229.439 25.18C229.959 25.5 230.309 25.86 230.489 26.26C230.689 26.64 230.729 27 230.609 27.34C230.509 27.66 230.279 27.82 229.919 27.82C229.539 27.82 229.279 27.68 229.139 27.4C229.019 27.1 228.889 26.78 228.749 26.44C228.629 26.1 228.439 25.79 228.179 25.51C227.919 25.21 227.469 25.06 226.829 25.06C226.289 25.06 225.769 25.2 225.269 25.48C224.789 25.76 224.359 26.14 223.979 26.62C223.619 27.1 223.319 27.66 223.079 28.3C222.839 28.92 222.699 29.58 222.659 30.28V37.84C222.659 38.2 222.689 38.49 222.749 38.71C222.829 38.93 222.929 39.11 223.049 39.25C223.169 39.37 223.309 39.47 223.469 39.55C223.649 39.61 223.829 39.66 224.009 39.7V40H219.509V39.7Z" fill="#F9F5F3"/>
</svg>
