<svg width="268" height="454" viewBox="0 0 268 454" fill="none" xmlns="http://www.w3.org/2000/svg">
<g clip-path="url(#clip0_1_4316)">
<path d="M171.301 66.5562C171.301 66.5562 176.431 179.873 96.6711 203.382C96.6711 203.382 46.4743 224.728 -22.6642 222.337C-80.6337 220.329 -164.783 222.184 -223.82 318.716C-232.337 337.461 -238.726 359.776 -242.308 386.316C-242.308 386.316 -213.581 412.959 -176.868 383.813C-176.868 383.813 -177.666 369.521 -171.977 350.633C-160.184 311.482 -123.163 279.574 -40.5385 275.103C114.081 266.735 158.449 186.653 166.151 159.635C179.163 127.882 171.301 66.5562 171.301 66.5562Z" stroke="#C4B385" stroke-opacity="0.7" stroke-width="1.5" stroke-miterlimit="10"/>
<path d="M173.391 122.692C171.435 123.23 167.097 123.445 165.391 120" stroke="#C4B385" stroke-opacity="0.7" stroke-width="1.4"/>
<path d="M173.713 104.617C173.101 105.55 171.285 106.756 168.918 104.11" stroke="#C4B385" stroke-opacity="0.7" stroke-width="1.4"/>
<path d="M173.391 92.6917C172.657 93.2301 171.031 93.4454 170.391 90" stroke="#C4B385" stroke-opacity="0.7" stroke-width="1.4"/>
<path d="M171.176 137.376C168.68 137.569 163.281 137.028 161.648 133.319" stroke="#C4B385" stroke-opacity="0.7" stroke-width="1.4"/>
<path d="M168.052 153.786C164.886 154.37 158.12 153.831 156.389 147.001" stroke="#C4B385" stroke-opacity="0.7" stroke-width="1.4"/>
<path d="M161.934 170.05C158.221 169.849 150.587 167.651 149.76 160.467" stroke="#C4B385" stroke-opacity="0.7" stroke-width="1.4"/>
<path d="M152.852 187.22C148.584 187.535 140.114 185.332 140.387 173.999" stroke="#C4B385" stroke-opacity="0.7" stroke-width="1.4"/>
<path d="M138.717 205.002C133.7 205.487 123.812 202.965 124.39 189" stroke="#C4B385" stroke-opacity="0.7" stroke-width="1.4"/>
<path d="M115.391 226C108.891 225 100.391 222 98.0367 203" stroke="#C4B385" stroke-opacity="0.7" stroke-width="1.4"/>
<path d="M69.5239 212C68.7897 219.954 70.7352 237.689 84.3906 245" stroke="#C4B385" stroke-opacity="0.7" stroke-width="1.4"/>
<path d="M34.3906 219.5C32.0573 228.667 30.9906 249.7 45.3906 260.5" stroke="#C4B385" stroke-opacity="0.7" stroke-width="1.4"/>
<path d="M173.391 127C172.557 127.167 170.491 127.3 168.891 126.5" stroke="#C4B385" stroke-opacity="0.7" stroke-width="1.4"/>
<path d="M170.289 143.003C169.44 142.977 167.397 142.64 166.018 141.5" stroke="#C4B385" stroke-opacity="0.7" stroke-width="1.4"/>
<path d="M166.278 158.503C165.428 158.477 163.385 158.14 162.007 157" stroke="#C4B385" stroke-opacity="0.7" stroke-width="1.4"/>
<path d="M159.278 175.503C158.428 175.477 156.385 175.14 155.007 174" stroke="#C4B385" stroke-opacity="0.7" stroke-width="1.4"/>
<path d="M148.278 193.503C147.164 193.416 144.466 192.927 142.58 191.669" stroke="#C4B385" stroke-opacity="0.7" stroke-width="1.4"/>
<path d="M172.891 132.5C171.557 132.833 168.291 133 165.891 131" stroke="#C4B385" stroke-opacity="0.7" stroke-width="1.4"/>
<path d="M169.239 149.173C167.614 149.587 163.756 149.464 161.324 145.658" stroke="#C4B385" stroke-opacity="0.7" stroke-width="1.4"/>
<path d="M164.223 164.673C162.598 165.087 158.74 164.964 156.309 161.158" stroke="#C4B385" stroke-opacity="0.7" stroke-width="1.4"/>
<path d="M156.223 181.673C154.598 182.087 150.74 181.964 148.309 178.158" stroke="#C4B385" stroke-opacity="0.7" stroke-width="1.4"/>
<path d="M144.247 199.468C141.804 200.132 136.011 199.969 132.389 194" stroke="#C4B385" stroke-opacity="0.7" stroke-width="1.4"/>
<path d="M131.927 212.619C129.51 213.036 123.731 212.75 119.948 208.266" stroke="#C4B385" stroke-opacity="0.7" stroke-width="1.4"/>
<path d="M121.802 221.014C118.369 220.413 110.68 217.37 107.391 209.999" stroke="#C4B385" stroke-opacity="0.7" stroke-width="1.4"/>
<path d="M104.722 234.183C102.491 233.801 97.5008 231.831 95.3879 227.001" stroke="#C4B385" stroke-opacity="0.7" stroke-width="1.4"/>
<path d="M95.035 239.467C90.6021 239.493 81.2667 236.235 79.3883 223" stroke="#C4B385" stroke-opacity="0.7" stroke-width="1.4"/>
<path d="M56.8906 256.5C53.5573 255 46.7906 249.3 46.3906 238.5V233.5" stroke="#C4B385" stroke-opacity="0.7" stroke-width="1.4"/>
<path d="M70.3906 251.5C67.5573 249.5 61.8906 244.4 61.8906 240" stroke="#C4B385" stroke-opacity="0.7" stroke-width="1.4"/>
<path d="M32.3906 264.5C30.224 262.167 25.5906 256.3 24.3906 251.5" stroke="#C4B385" stroke-opacity="0.7" stroke-width="1.4"/>
<path d="M15.3906 268C12.8988 264.571 8.01494 255.657 8.41362 247.429V244" stroke="#C4B385" stroke-opacity="0.7" stroke-width="1.4"/>
<path d="M173.391 118C172.391 118.5 170.191 119.1 169.391 117.5" stroke="#C4B385" stroke-opacity="0.7" stroke-width="1.4"/>
<path d="M173.391 112.5C172.557 112.833 170.791 113.3 170.391 112.5" stroke="#C4B385" stroke-opacity="0.7" stroke-width="1.4"/>
<path d="M173.391 100C173.224 100.333 172.691 100.8 171.891 100" stroke="#C4B385" stroke-opacity="0.7" stroke-width="1.4"/>
<path d="M155.904 55.9816C147.445 50.8211 137.1 49.3041 127.256 50.4383C118.969 51.4086 110.993 54.1748 103.885 58.5442C96.7768 62.9135 90.7072 68.7808 86.0994 75.7369C81.4916 82.6929 78.4565 90.5704 77.2059 98.8199C75.9553 107.069 76.5191 115.492 78.8581 123.502C83.7957 113.439 90.2696 104.206 98.0474 96.1351C97.0729 92.5171 96.4262 88.8187 96.1153 85.0847L101.603 92.7132C104.486 90.107 107.568 87.7283 110.819 85.5985C114.74 83.0921 118.927 81.0279 123.302 79.4436C122.368 74.6223 122.144 69.69 122.638 64.8038C124.617 69.1138 126.595 73.4204 128.573 77.7238C133.711 76.266 138.994 75.3843 144.326 75.0949L146.405 67.9888C147.184 70.3292 147.973 72.669 148.751 75.0095C156.531 75.064 164.209 76.7856 171.268 80.0582C170.614 70.1998 164.291 61.1171 155.904 55.9816Z" stroke="#C2B58B" stroke-opacity="0.7" stroke-width="1.64" stroke-miterlimit="10"/>
<path d="M91.898 102.831L89.5312 95.2402" stroke="#C2B58B" stroke-opacity="0.7" stroke-width="1.64" stroke-miterlimit="10"/>
<path d="M88.4676 92.1487L88.1484 89.9258" stroke="#C2B58B" stroke-opacity="0.7" stroke-width="1.64" stroke-miterlimit="10"/>
<path d="M87.2354 108.729C86.5649 107.343 85.8853 105.968 85.2148 104.582" stroke="#C2B58B" stroke-opacity="0.7" stroke-width="1.64" stroke-miterlimit="10"/>
<path d="M82.8466 116.059L81.8164 111.602" stroke="#C2B58B" stroke-opacity="0.7" stroke-width="1.64" stroke-miterlimit="10"/>
<path d="M107.108 87.8389C106.1 85.2374 105.089 82.6362 104.074 80.0352" stroke="#C2B58B" stroke-opacity="0.7" stroke-width="1.64" stroke-miterlimit="10"/>
<path d="M113.582 84.0073C111.883 79.7206 110.602 75.2795 109.758 70.7461" stroke="#C2B58B" stroke-opacity="0.7" stroke-width="1.64" stroke-miterlimit="10"/>
<path d="M117.844 81.2068C117.245 78.8635 116.637 76.5208 116.039 74.1875" stroke="#C2B58B" stroke-opacity="0.7" stroke-width="1.64" stroke-miterlimit="10"/>
<path d="M133.206 76.2003L132.266 73.5605" stroke="#C2B58B" stroke-opacity="0.7" stroke-width="1.64" stroke-miterlimit="10"/>
<path d="M131.381 69.912C131.241 69.3506 131.11 68.7784 130.969 68.207" stroke="#C2B58B" stroke-opacity="0.7" stroke-width="1.64" stroke-miterlimit="10"/>
<path d="M138.797 75.1871C138.37 72.4306 137.932 69.6747 137.504 66.9082" stroke="#C2B58B" stroke-opacity="0.7" stroke-width="1.64" stroke-miterlimit="10"/>
<path d="M154.614 75.3126L153.285 69.4824" stroke="#C2B58B" stroke-opacity="0.7" stroke-width="1.64" stroke-miterlimit="10"/>
<path d="M162.085 76.1728C161.585 73.1006 161.096 70.0377 160.605 66.9648" stroke="#C2B58B" stroke-opacity="0.7" stroke-width="1.64" stroke-miterlimit="10"/>
<path d="M184.918 57.8279C185.022 57.0285 185.115 56.2298 185.169 55.4439C185.837 45.5613 182.404 35.6807 176.836 27.4865C172.146 20.5842 166.006 14.7881 158.845 10.5024C151.685 6.21662 143.675 3.54438 135.376 2.67198C127.076 1.79959 118.687 2.74804 110.791 5.45119C102.896 8.15435 95.6853 12.5472 89.6621 18.3233C100.866 18.0538 112.044 19.5248 122.797 22.6839C125.56 20.1537 128.541 17.871 131.704 15.8621L127.451 24.2664C131.098 25.6194 134.634 27.254 138.027 29.1555C138.935 29.662 139.867 30.2171 140.794 30.8426C143.795 32.783 146.633 34.9642 149.28 37.3647C153.121 34.3084 157.389 31.8317 161.948 30.0135C159.042 33.7634 156.141 37.5129 153.248 41.2619C156.919 45.1403 160.146 49.4156 162.87 54.0088L170.136 52.5676C168.418 54.3478 166.705 56.141 164.996 57.9474C168.541 64.8672 170.567 72.4645 170.939 80.2307C171.246 80.0483 171.553 79.8459 171.898 79.6308" stroke="#C2B58B" stroke-opacity="0.7" stroke-width="1.64" stroke-miterlimit="10"/>
<path d="M114.053 20.4032L119.668 14.8089" stroke="#C2B58B" stroke-opacity="0.7" stroke-width="1.64" stroke-miterlimit="10"/>
<path d="M121.932 12.4211L123.753 11.1081" stroke="#C2B58B" stroke-opacity="0.7" stroke-width="1.64" stroke-miterlimit="10"/>
<path d="M106.71 18.9716C107.618 17.7371 108.532 16.5022 109.453 15.2668" stroke="#C2B58B" stroke-opacity="0.7" stroke-width="1.64" stroke-miterlimit="10"/>
<path d="M98.1657 18.4805L101.633 15.5159" stroke="#C2B58B" stroke-opacity="0.7" stroke-width="1.64" stroke-miterlimit="10"/>
<path d="M134.378 26.9506L139.846 20.6852" stroke="#C2B58B" stroke-opacity="0.7" stroke-width="1.64" stroke-miterlimit="10"/>
<path d="M140.771 30.9259C143.777 27.4321 147.118 24.2418 150.748 21.4009" stroke="#C2B58B" stroke-opacity="0.7" stroke-width="1.64" stroke-miterlimit="10"/>
<path d="M145.267 33.4018L150.655 28.5456" stroke="#C2B58B" stroke-opacity="0.7" stroke-width="1.64" stroke-miterlimit="10"/>
<path d="M156.761 44.7118L158.62 42.6642" stroke="#C2B58B" stroke-opacity="0.7" stroke-width="1.64" stroke-miterlimit="10"/>
<path d="M161.493 40.1821L162.814 39.035" stroke="#C2B58B" stroke-opacity="0.7" stroke-width="1.64" stroke-miterlimit="10"/>
<path d="M160.249 49.205C162.489 47.5411 164.734 45.8837 166.982 44.2327" stroke="#C2B58B" stroke-opacity="0.7" stroke-width="1.64" stroke-miterlimit="10"/>
<path d="M167.452 63.2871L171.997 59.4034" stroke="#C2B58B" stroke-opacity="0.7" stroke-width="1.64" stroke-miterlimit="10"/>
<path d="M170.149 70.2939L177.623 64.7474" stroke="#C2B58B" stroke-opacity="0.7" stroke-width="1.64" stroke-miterlimit="10"/>
<path d="M200.281 79.9004C209.261 84.0813 216.268 91.7917 220.812 100.661C224.597 108.097 226.715 116.269 227.018 124.608C227.321 132.947 225.803 141.251 222.568 148.943C219.333 156.634 214.46 163.528 208.288 169.143C202.116 174.759 194.793 178.961 186.831 181.457C192.468 171.763 196.564 161.253 198.973 150.302C202.525 149.115 205.961 147.605 209.237 145.79L199.82 145.46C200.365 141.617 200.615 137.738 200.565 133.857C200.482 129.206 199.879 124.578 198.768 120.06C203.297 118.161 207.526 115.614 211.321 112.497L197.262 114.704C195.637 109.617 193.445 104.729 190.728 100.132L195.486 94.469L188.336 96.4032C183.988 89.9614 178.311 84.5247 171.688 80.4587C180.267 75.505 191.291 75.7302 200.281 79.9004Z" stroke="#C2B58B" stroke-opacity="0.7" stroke-width="1.64" stroke-miterlimit="10"/>
<path d="M196.754 159.104L204.373 156.855" stroke="#C2B58B" stroke-opacity="0.7" stroke-width="1.64" stroke-miterlimit="10"/>
<path d="M207.542 156.036L209.569 155.08" stroke="#C2B58B" stroke-opacity="0.7" stroke-width="1.64" stroke-miterlimit="10"/>
<path d="M194.466 166.235L199.044 165.617" stroke="#C2B58B" stroke-opacity="0.7" stroke-width="1.64" stroke-miterlimit="10"/>
<path d="M190.785 173.957L195.06 172.338" stroke="#C2B58B" stroke-opacity="0.7" stroke-width="1.64" stroke-miterlimit="10"/>
<path d="M200.8 138.132L208.924 136.359" stroke="#C2B58B" stroke-opacity="0.7" stroke-width="1.64" stroke-miterlimit="10"/>
<path d="M200.394 130.632C204.901 129.67 209.304 128.271 213.54 126.455" stroke="#C2B58B" stroke-opacity="0.7" stroke-width="1.64" stroke-miterlimit="10"/>
<path d="M200.357 125.522L207.205 123.138" stroke="#C2B58B" stroke-opacity="0.7" stroke-width="1.64" stroke-miterlimit="10"/>
<path d="M196.011 109.981L198.73 109.296" stroke="#C2B58B" stroke-opacity="0.7" stroke-width="1.64" stroke-miterlimit="10"/>
<path d="M202.258 108.002L203.898 107.394" stroke="#C2B58B" stroke-opacity="0.7" stroke-width="1.64" stroke-miterlimit="10"/>
<path d="M193.753 104.748L201.349 101.198" stroke="#C2B58B" stroke-opacity="0.7" stroke-width="1.64" stroke-miterlimit="10"/>
<path d="M184.888 91.6473L190.471 89.5242" stroke="#C2B58B" stroke-opacity="0.7" stroke-width="1.64" stroke-miterlimit="10"/>
<path d="M180.024 85.9078L188.501 82.0441" stroke="#C2B58B" stroke-opacity="0.7" stroke-width="1.64" stroke-miterlimit="10"/>
<path d="M264.035 124.171C259.16 114.085 252.748 104.816 245.03 96.6955C246.026 93.0861 246.695 89.3944 247.029 85.6651C245.205 88.2014 243.358 90.7428 241.488 93.2892C238.62 90.6678 235.553 88.2725 232.315 86.1245C231.432 85.5559 230.518 84.9795 229.547 84.4273C226.419 82.6532 223.149 81.1429 219.77 79.9123C220.726 75.0943 220.972 70.1623 220.499 65.2732L214.481 78.1546C209.352 76.6635 204.071 75.7559 198.739 75.4492C198.068 73.071 197.397 70.6927 196.706 68.3259C195.871 70.6713 195.115 73.0011 194.31 75.3444C186.536 75.3557 178.855 77.0324 171.783 80.2617C171.769 80.0622 171.813 79.8385 171.829 79.6368C179.094 74.817 183.694 66.5182 184.908 57.8297C185.68 57.2633 186.463 56.7161 187.282 56.2466C195.769 51.129 206.129 49.6471 215.97 50.8492C224.256 51.8593 232.221 54.6647 239.311 59.0696C246.401 63.4746 252.445 69.3732 257.021 76.3539C261.598 83.3347 264.596 91.2297 265.807 99.4884C267.019 107.747 266.414 116.17 264.035 124.171Z" stroke="#C2B58B" stroke-opacity="0.7" stroke-width="1.64" stroke-miterlimit="10"/>
<path d="M251.015 103.416C251.837 100.891 252.609 98.3598 253.411 95.8362" stroke="#C2B58B" stroke-opacity="0.7" stroke-width="1.64" stroke-miterlimit="10"/>
<path d="M254.504 92.7723L254.836 90.553" stroke="#C2B58B" stroke-opacity="0.7" stroke-width="1.64" stroke-miterlimit="10"/>
<path d="M255.652 109.291L257.691 105.135" stroke="#C2B58B" stroke-opacity="0.7" stroke-width="1.64" stroke-miterlimit="10"/>
<path d="M259.998 116.659L261.044 112.214" stroke="#C2B58B" stroke-opacity="0.7" stroke-width="1.64" stroke-miterlimit="10"/>
<path d="M235.881 88.346C236.907 85.7664 237.929 83.1903 238.948 80.6178" stroke="#C2B58B" stroke-opacity="0.7" stroke-width="1.64" stroke-miterlimit="10"/>
<path d="M229.434 84.5353C231.163 80.2372 232.463 75.7788 233.316 71.225" stroke="#C2B58B" stroke-opacity="0.7" stroke-width="1.64" stroke-miterlimit="10"/>
<path d="M225.176 81.6629C225.805 79.3255 226.423 76.9888 227.032 74.6529" stroke="#C2B58B" stroke-opacity="0.7" stroke-width="1.64" stroke-miterlimit="10"/>
<path d="M209.846 76.5711L210.801 73.9364" stroke="#C2B58B" stroke-opacity="0.7" stroke-width="1.64" stroke-miterlimit="10"/>
<path d="M211.705 70.3025L212.125 68.5982" stroke="#C2B58B" stroke-opacity="0.7" stroke-width="1.64" stroke-miterlimit="10"/>
<path d="M204.256 75.5355L205.591 67.2695" stroke="#C2B58B" stroke-opacity="0.7" stroke-width="1.64" stroke-miterlimit="10"/>
<path d="M188.442 75.5724L189.801 69.7509" stroke="#C2B58B" stroke-opacity="0.7" stroke-width="1.64" stroke-miterlimit="10"/>
<path d="M180.97 76.3964C181.479 73.3323 181.986 70.2684 182.489 67.2048" stroke="#C2B58B" stroke-opacity="0.7" stroke-width="1.64" stroke-miterlimit="10"/>
</g>
<defs>
<clipPath id="clip0_1_4316">
<rect width="502.39" height="453.95" fill="white" transform="translate(-235)"/>
</clipPath>
</defs>
</svg>
