<svg width="29" height="28" viewBox="0 0 29 28" fill="none" xmlns="http://www.w3.org/2000/svg">
<rect x="0.454102" width="27.9998" height="27.9998" rx="1.5" fill="white"/>
<path d="M21.5383 10.1657C21.5492 10.3314 21.5492 10.4971 21.5492 10.6643C21.5492 15.7597 17.8719 21.6362 11.1479 21.6362V21.6331C9.16161 21.6362 7.21657 21.036 5.54443 19.9044C5.83326 19.941 6.12353 19.9594 6.41452 19.9601C8.0606 19.9617 9.65963 19.3791 10.9546 18.3062C9.39035 18.2749 8.01862 17.199 7.53942 15.6283C8.08739 15.7398 8.65201 15.7169 9.18984 15.5619C7.4844 15.1984 6.25745 13.6178 6.25745 11.7822C6.25745 11.7654 6.25745 11.7493 6.25745 11.7333C6.7656 12.0319 7.33456 12.1976 7.91655 12.2159C6.31029 11.0835 5.81516 8.82939 6.78515 7.06705C8.64115 9.47615 11.3795 10.9407 14.3192 11.0957C14.0246 9.75638 14.427 8.35292 15.3768 7.41142C16.8491 5.95145 19.1648 6.02628 20.5488 7.57865C21.3675 7.40837 22.1522 7.09148 22.8703 6.64249C22.5974 7.53512 22.0262 8.29336 21.2633 8.77518C21.9879 8.68508 22.6958 8.48044 23.3625 8.16813C22.8717 8.94393 22.2535 9.6197 21.5383 10.1657Z" fill="#008281"/>
</svg>
